<?xml version="1.0" encoding="UTF-8"?>
<svg width="2em" height="2em" viewBox="0 0 60 60" version="1.1" xmlns="http://www.w3.org/2000/svg" xmlns:xlink="http://www.w3.org/1999/xlink">
     <defs>
    <style>
      .cls-1 {
        fill: #fff;
        fill-rule: evenodd;
      }
    </style>
  </defs>
    <g id="Page-1" stroke="none" stroke-width="1">
        <path class='cls-1' d="M29.8828125,59.8125 C34.0234375,59.8125 37.9101562,59.03125 41.5429688,57.46875 C45.1757812,55.90625 48.3398438,53.7578125 51.0351562,51.0234375 C53.7304688,48.2890625 55.859375,45.1054688 57.421875,41.4726562 C58.984375,37.8398438 59.765625,33.9921875 59.765625,29.9296875 C59.765625,25.7890625 58.984375,21.9023438 57.421875,18.2695312 C55.859375,14.6367188 53.7304688,11.4726562 51.0351562,8.77734375 C48.3398438,6.08203125 45.1757812,3.953125 41.5429688,2.390625 C37.9101562,0.828125 34.0234375,0.046875 29.8828125,0.046875 C25.7421875,0.046875 21.8554688,0.828125 18.2226562,2.390625 C14.5898438,3.953125 11.4257812,6.08203125 8.73046875,8.77734375 C6.03515625,11.4726562 3.90625,14.6367188 2.34375,18.2695312 C0.78125,21.9023438 0,25.7890625 0,29.9296875 C0,31.3359375 0.09765625,32.7421875 0.29296875,34.1484375 C0.48828125,35.5546875 0.78125,36.9023438 1.171875,38.1914062 C1.5625,39.4804688 2.03125,40.75 2.578125,42 C3.125,43.25 3.75,44.421875 4.453125,45.515625 C4.453125,45.515625 4.47265625,45.4765625 4.51171875,45.3984375 C4.55078125,45.3203125 4.5703125,45.2617188 4.5703125,45.2226562 C4.5703125,45.1835938 4.58984375,45.125 4.62890625,45.046875 C4.66796875,44.96875 4.7265625,44.9296875 4.8046875,44.9296875 C4.8828125,44.8515625 4.9609375,44.7734375 5.0390625,44.6953125 C5.1171875,44.6171875 5.21484375,44.578125 5.33203125,44.578125 L5.9765625,44.578125 L5.9765625,44.578125 L7.03125,44.9296875 C6.25,43.8359375 5.5859375,42.703125 5.0390625,41.53125 C4.4921875,40.359375 4.0234375,39.1484375 3.6328125,37.8984375 C3.2421875,36.6484375 2.94921875,35.3398438 2.75390625,33.9726562 C2.55859375,32.6054688 2.4609375,31.2578125 2.4609375,29.9296875 C2.4609375,26.1015625 3.18359375,22.5273438 4.62890625,19.2070312 C6.07421875,15.8867188 8.02734375,12.9765625 10.4882812,10.4765625 C12.9492188,7.9765625 15.859375,6.0234375 19.21875,4.6171875 C22.578125,3.2109375 26.1328125,2.5078125 29.8828125,2.5078125 C33.7109375,2.5078125 37.2851562,3.2109375 40.6054688,4.6171875 C43.9257812,6.0234375 46.8164062,7.9765625 49.2773438,10.4765625 C51.7382812,12.9765625 53.6914062,15.8867188 55.1367188,19.2070312 C56.5820312,22.5273438 57.3046875,26.1015625 57.3046875,29.9296875 C57.3046875,33.6796875 56.5820312,37.2148438 55.1367188,40.5351562 C53.6914062,43.8554688 51.7382812,46.765625 49.2773438,49.265625 C46.8164062,51.765625 43.9257812,53.7382812 40.6054688,55.1835938 C37.2851562,56.6289062 33.7109375,57.3515625 29.8828125,57.3515625 C28.3984375,57.3515625 26.9335938,57.2148438 25.4882812,56.9414062 C24.0429688,56.6679688 22.6367188,56.3164062 21.2695312,55.8867188 C19.9023438,55.4570312 18.5742188,54.9101562 17.2851562,54.2460938 C15.9960938,53.5820312 14.8046875,52.8203125 13.7109375,51.9609375 L13.59375,51.9609375 L13.59375,51.9609375 C13.4375,51.8046875 13.28125,51.6679688 13.125,51.5507812 C12.96875,51.4335938 12.8125,51.3164062 12.65625,51.1992188 C12.5,51.0820312 12.34375,50.9648438 12.1875,50.8476562 C12.03125,50.7304688 11.9140625,50.59375 11.8359375,50.4375 C11.7578125,50.4375 11.6796875,50.3984375 11.6015625,50.3203125 C11.5234375,50.2421875 11.4453125,50.1640625 11.3671875,50.0859375 C11.2890625,50.0078125 11.2109375,49.9296875 11.1328125,49.8515625 C11.0546875,49.7734375 10.9765625,49.734375 10.8984375,49.734375 L12.65625,47.9765625 L5.625,45.75 L7.265625,53.25 L9.140625,51.375 C9.21875,51.453125 9.296875,51.53125 9.375,51.609375 L9.609375,51.84375 L9.609375,51.84375 C9.66145833,51.8958333 9.71354167,51.9392361 9.765625,51.9739583 L9.84375,52.0195312 C9.89583333,52.0455729 9.94791667,52.0802951 10,52.1236979 L10.078125,52.1953125 L10.078125,52.1953125 L10.078125,52.3125 L10.078125,52.3125 C10.15625,52.3125 10.234375,52.3515625 10.3125,52.4296875 L10.4882812,52.6054688 L10.4882812,52.6054688 C10.5273438,52.6445312 10.5859375,52.703125 10.6640625,52.78125 C10.7421875,52.859375 10.8203125,52.8984375 10.8984375,52.8984375 C10.8984375,52.9765625 10.9179688,53.015625 10.9570312,53.015625 C10.9960938,53.015625 11.015625,53.0351562 11.015625,53.0742188 C11.015625,53.1132812 11.0351562,53.1328125 11.0742188,53.1328125 L11.1328125,53.1328125 L11.1328125,53.1328125 C11.2109375,53.2109375 11.2890625,53.2695312 11.3671875,53.3085938 C11.4453125,53.3476562 11.5234375,53.40625 11.6015625,53.484375 C11.6536458,53.5364583 11.6970486,53.5798611 11.7317708,53.6145833 L11.8815104,53.7643229 C11.9032118,53.7860243 11.9270833,53.8098958 11.953125,53.8359375 C11.953125,53.8359375 11.9726562,53.8554688 12.0117188,53.8945312 C12.0507812,53.9335938 12.0898438,53.953125 12.1289062,53.953125 C12.1679688,53.953125 12.2070312,53.9726562 12.2460938,54.0117188 C12.2851562,54.0507812 12.3046875,54.0703125 12.3046875,54.0703125 C12.3828125,54.0703125 12.4414062,54.0898438 12.4804688,54.1289062 C12.5195312,54.1679688 12.5585938,54.2070312 12.5976562,54.2460938 C12.6367188,54.2851562 12.6757812,54.3242188 12.7148438,54.3632812 C12.7539062,54.4023438 12.8125,54.421875 12.890625,54.421875 C14.0625,55.28125 15.3320312,56.0429688 16.6992188,56.7070312 C18.0664062,57.3710938 19.453125,57.9375 20.859375,58.40625 C22.265625,58.875 23.7304688,59.2265625 25.2539062,59.4609375 C26.7773438,59.6953125 28.3203125,59.8125 29.8828125,59.8125 Z M29.8828125,55.59375 C33.3984375,55.59375 36.71875,54.9296875 39.84375,53.6015625 C42.96875,52.2734375 45.703125,50.4375 48.046875,48.09375 C50.390625,45.75 52.2265625,43.015625 53.5546875,39.890625 C54.8828125,36.765625 55.546875,33.4453125 55.546875,29.9296875 C55.546875,26.4140625 54.8828125,23.09375 53.5546875,19.96875 C52.2265625,16.84375 50.390625,14.109375 48.046875,11.765625 C45.703125,9.421875 42.96875,7.5859375 39.84375,6.2578125 C36.71875,4.9296875 33.3984375,4.265625 29.8828125,4.265625 C26.3671875,4.265625 23.046875,4.9296875 19.921875,6.2578125 C16.796875,7.5859375 14.0625,9.421875 11.71875,11.765625 C9.375,14.109375 7.5390625,16.84375 6.2109375,19.96875 C4.8828125,23.09375 4.21875,26.4140625 4.21875,29.9296875 C4.21875,31.4140625 4.3359375,32.8789062 4.5703125,34.3242188 C4.8046875,35.7695312 5.15625,37.15625 5.625,38.484375 C6.09375,39.8125 6.66015625,41.0820312 7.32421875,42.2929688 C7.98828125,43.5039062 8.75,44.65625 9.609375,45.75 L13.0078125,46.8046875 C13.1640625,46.8046875 13.28125,46.84375 13.359375,46.921875 C13.4375,47 13.515625,47.078125 13.59375,47.15625 C13.671875,47.234375 13.7304688,47.3125 13.7695312,47.390625 C13.8085938,47.46875 13.828125,47.546875 13.828125,47.625 L13.828125,48.2109375 L13.828125,48.2109375 C13.828125,48.2890625 13.7890625,48.3867188 13.7109375,48.5039062 C13.6328125,48.6210938 13.5546875,48.71875 13.4765625,48.796875 L13.0078125,49.265625 C13.3203125,49.578125 13.6523438,49.8710938 14.0039062,50.1445312 C14.3554688,50.4179688 14.7070312,50.671875 15.0585938,50.90625 L16.1132812,51.609375 L16.1132812,51.609375 C16.4648438,51.84375 16.8359375,52.078125 17.2265625,52.3125 L17.2265625,36.7265625 L12.3046875,36.7265625 L12.3046875,29.9296875 L17.2265625,29.9296875 L17.2265625,23.953125 L17.2265625,23.953125 C17.2265625,21.21875 17.96875,19.265625 19.453125,18.09375 C20.9375,16.921875 22.5585938,16.1601562 24.3164062,15.8085938 C26.0742188,15.4570312 27.6953125,15.359375 29.1796875,15.515625 C30.6640625,15.671875 31.40625,15.75 31.40625,15.75 L31.40625,22.078125 L26.1328125,22.078125 L26.1328125,22.078125 C25.6640625,22.078125 25.3125,22.1757812 25.078125,22.3710938 C24.84375,22.5664062 24.6679688,22.78125 24.5507812,23.015625 C24.4335938,23.25 24.3554688,23.4648438 24.3164062,23.6601562 C24.2773438,23.8554688 24.2578125,23.953125 24.2578125,23.953125 L24.2578125,29.9296875 L24.2578125,29.9296875 L31.40625,29.9296875 L31.40625,29.9296875 L31.40625,36.4921875 L24.2578125,36.4921875 L24.2578125,55.0078125 C24.7265625,55.0859375 25.1953125,55.1640625 25.6640625,55.2421875 L27.0703125,55.4765625 L27.0703125,55.4765625 C27.5390625,55.5546875 28.0078125,55.59375 28.4765625,55.59375 L29.8828125,55.59375 L29.8828125,55.59375 Z" id="" fill="#000000" fill-rule="nonzero"></path>
    </g>
</svg>