<svg xmlns="http://www.w3.org/2000/svg" width="2em" height="2em" viewBox="0 0 36.72 36.66">
  <defs>
    <style>
      .cls-1 {
        fill: #fff;
        fill-rule: evenodd;
      }
    </style>
  </defs>
  <path id="Ellipse_7_copie_copy_3" data-name="Ellipse 7 copie copy 3" class="cls-1" d="M1258.09,4442.28h-24.53a6.109,6.109,0,0,0-6.1,6.09v24.49a6.109,6.109,0,0,0,6.1,6.09h24.53a6.116,6.116,0,0,0,6.1-6.09v-24.49A6.116,6.116,0,0,0,1258.09,4442.28Zm-18.87,16.05h13.21a6.865,6.865,0,0,1,.39,2.28,7,7,0,0,1-13.99,0A6.865,6.865,0,0,1,1239.22,4458.33Zm20.38,0v13.75a2.3,2.3,0,0,1-2.3,2.29h-22.95a2.3,2.3,0,0,1-2.3-2.29v-13.75h3.59a10.085,10.085,0,0,0-.25,2.28,10.435,10.435,0,0,0,20.87,0,10.087,10.087,0,0,0-.26-2.28h3.6Zm0-8.03a1.157,1.157,0,0,1-1.15,1.15h-2.3a1.157,1.157,0,0,1-1.15-1.15v-2.29a1.148,1.148,0,0,1,1.15-1.14h2.3a1.148,1.148,0,0,1,1.15,1.14v2.29Z" transform="translate(-1227.47 -4442.28)"/>
</svg>
