<svg xmlns="http://www.w3.org/2000/svg" width="2em" height="2em" viewBox="0 0 30.38 24.69">
  <defs>
    <style>
      .cls-1 {
        fill: #fff;
        fill-rule: evenodd;
      }
    </style>
  </defs>
  <path id="Ellipse_7_copie_copy_2" data-name="Ellipse 7 copie copy 2" class="cls-1" d="M1593.19,4207.75a12.652,12.652,0,0,1-3.58.98,6.275,6.275,0,0,0,2.74-3.45,12.558,12.558,0,0,1-3.96,1.51,6.226,6.226,0,0,0-10.77,4.27,6.123,6.123,0,0,0,.16,1.42,17.684,17.684,0,0,1-12.84-6.52,6.249,6.249,0,0,0,1.93,8.32,6.207,6.207,0,0,1-2.83-.78v0.08a6.234,6.234,0,0,0,5,6.11,5.9,5.9,0,0,1-1.64.22,6.445,6.445,0,0,1-1.17-.11,6.226,6.226,0,0,0,5.82,4.33,12.53,12.53,0,0,1-7.74,2.67,12.289,12.289,0,0,1-1.49-.09,17.617,17.617,0,0,0,9.55,2.8c11.46,0,17.72-9.5,17.72-17.73,0-.28,0-0.54-0.01-0.81A12.7,12.7,0,0,0,1593.19,4207.75Z" transform="translate(-1562.81 -4204.81)"/>
</svg>
