<svg id="Twitter" xmlns="http://www.w3.org/2000/svg" width="2em" height="2em" viewBox="0 0 78.43 78.44">
  <defs>
    <style>
      .cls-1 {
        fill: #fff;
        fill-rule: evenodd;
      }
    </style>
  </defs>
  <path id="Ellipse_7_copie_copy" data-name="Ellipse 7 copie copy" class="cls-1" d="M1657.59,4712.85a15.671,15.671,0,0,1-4.47,1.23,7.817,7.817,0,0,0,3.42-4.31,15.688,15.688,0,0,1-4.95,1.89,7.789,7.789,0,0,0-13.47,5.33,8.026,8.026,0,0,0,.2,1.78,22.128,22.128,0,0,1-16.05-8.15,7.825,7.825,0,0,0,2.41,10.41,7.667,7.667,0,0,1-3.52-.98v0.1a7.8,7.8,0,0,0,6.24,7.64,7.687,7.687,0,0,1-2.05.28,7.771,7.771,0,0,1-1.46-.15,7.8,7.8,0,0,0,7.27,5.42,15.677,15.677,0,0,1-9.67,3.33,14.294,14.294,0,0,1-1.86-.11,22.051,22.051,0,0,0,11.94,3.5c14.32,0,22.15-11.87,22.15-22.17,0-.34-0.01-0.67-0.02-1.01A15.7,15.7,0,0,0,1657.59,4712.85Z" transform="translate(-1600.13 -4684.97)"/>
  <path id="Shape_576_copy_12" data-name="Shape 576 copy 12" class="cls-1" d="M1669.52,4749.24a39.223,39.223,0,0,1-55.1,5.22l-0.02-.02-0.02-.01h0l-0.02-.02-0.02-.01h0l-0.02-.02-0.01-.01-0.01-.01-0.02-.01-0.01-.01-0.01-.01-0.04-.03-0.02-.02h0l-0.02-.02-0.02-.01h0l-0.04-.04-0.02-.01c-0.67-.57-1.31-1.14-1.92-1.72l-0.19-.19-2.34,2.16-2.33-9.66,9.42,3.1-2.37,2.2,0.05,0.05c0.38,0.36.75,0.71,1.14,1.05h0c0.19,0.17.38,0.33,0.58,0.5h0l0.03,0.02v0.01h0.01l0.04,0.04,0.02,0.01h0l0.01,0.01,0.02,0.02h0l0.01,0.01,0.02,0.01v0.01h0.01l0.01,0.01,0.02,0.02h0l0.01,0.01,0.02,0.01h0l0.01,0.01,0.02,0.01v0.01l0.01,0.01,0.02,0.01,0.01,0.01h0l0.01,0.01,0.02,0.01a35.98,35.98,0,0,0,50.64-4.89h0.01a36,36,0,0,0-4.9-50.65v-0.01h0c-0.12-.09-0.24-0.19-0.36-0.29h0c-0.12-.1-0.24-0.19-0.37-0.29h0c-0.12-.09-0.24-0.19-0.36-0.28h0c-0.13-.09-0.25-0.18-0.37-0.28h0c-0.12-.09-0.25-0.18-0.37-0.27h0c-0.13-.09-0.25-0.18-0.37-0.26l-0.01-.01c-0.12-.08-0.25-0.17-0.37-0.25v-0.01c-0.13-.08-0.25-0.17-0.38-0.25h0c-0.13-.09-0.25-0.17-0.38-0.25h0c-0.13-.08-0.25-0.16-0.38-0.24v-0.01c-0.13-.08-0.26-0.16-0.39-0.23v-0.01c-0.13-.07-0.26-0.15-0.38-0.23h-0.01c-0.12-.08-0.25-0.15-0.38-0.23h0c-0.13-.07-0.26-0.15-0.39-0.22h-0.01c-0.13-.07-0.26-0.15-0.39-0.22h0l-0.39-.21h0c-0.14-.07-0.27-0.14-0.4-0.21h0c-0.13-.07-0.27-0.13-0.4-0.2h0c-0.13-.07-0.27-0.13-0.4-0.2h0c-0.13-.06-0.27-0.12-0.4-0.19h0c-0.14-.06-0.27-0.12-0.41-0.18h0c-0.13-.06-0.27-0.12-0.4-0.18h0c-0.14-.06-0.27-0.12-0.41-0.18h0c-0.14-.06-0.27-0.11-0.41-0.17h0c-0.14-.05-0.27-0.11-0.41-0.16h0c-0.14-.06-0.27-0.11-0.41-0.16h0c-0.14-.05-0.28-0.1-0.41-0.15v-0.01c-0.14-.05-0.28-0.1-0.42-0.14h0c-0.14-.05-0.28-0.1-0.41-0.15h-0.01c-0.13-.04-0.27-0.09-0.41-0.13v-0.01c-0.14-.04-0.28-0.08-0.42-0.13h0l-0.42-.12c-0.12-.04-0.24-0.08-0.36-0.11l-0.06-.02h0c-0.14-.04-0.28-0.08-0.42-0.11h0l-0.42-.12h-0.01c-0.14-.03-0.28-0.07-0.42-0.1h0c-0.14-.04-0.28-0.07-0.42-0.1h0c-0.14-.04-0.29-0.07-0.43-0.1h0l-0.42-.09h0c-0.15-.03-0.29-0.06-0.43-0.08h0c-0.14-.03-0.29-0.06-0.43-0.08h0c-0.14-.03-0.28-0.06-0.43-0.08h0c-0.14-.02-0.28-0.05-0.43-0.07h0l-0.42-.06h0l-0.43-.06h0l-0.43-.06h-0.01c-0.14-.01-0.28-0.03-0.43-0.05h0c-0.14-.01-0.28-0.03-0.43-0.04h0c-0.14-.01-0.28-0.03-0.43-0.04h0l-0.43-.03h0l-0.43-.03h0c-0.15-.01-0.29-0.02-0.43-0.02h0c-0.15-.01-0.29-0.01-0.44-0.02h0c-0.14,0-.28-0.01-0.43-0.01h0c-0.14-.01-0.29-0.01-0.43-0.01h-0.86c-0.15,0-.29.01-0.44,0.01h0c-0.14,0-.28.01-0.43,0.01h0c-0.14.01-.29,0.01-0.43,0.02h0l-0.43.03h0c-0.29.01-.57,0.03-0.86,0.06-0.14.01-.29,0.02-0.43,0.04h0c-0.14.01-.29,0.03-0.43,0.04s-0.29.03-.43,0.05h0c-0.14.02-.28,0.04-0.43,0.05l-0.42.06c-0.15.02-.29,0.05-0.43,0.07s-0.29.04-.43,0.07h0c-0.14.02-.28,0.05-0.42,0.07h0c-0.14.03-.29,0.06-0.43,0.08l-0.42.09-0.42.09h0c-0.14.03-.28,0.06-0.43,0.09s-0.28.07-.42,0.1h0c-0.14.04-.28,0.07-0.42,0.11s-0.27.07-.41,0.11-0.28.07-.42,0.11h0l-0.42.12c-0.14.04-.27,0.09-0.41,0.13s-0.28.08-.41,0.13-0.28.09-.42,0.13-0.27.1-.41,0.15-0.27.09-.41,0.14-0.27.1-.4,0.15-0.27.1-.41,0.16-0.27.1-.4,0.16-0.27.11-.41,0.16-0.26.12-.4,0.17-0.26.12-.4,0.18l-0.39.18c-0.13.06-.27,0.12-0.4,0.18s-0.26.13-.39,0.2-0.26.12-.39,0.19-0.26.13-.39,0.2l-0.39.21c-0.13.07-.26,0.14-0.38,0.21l-0.39.21c-0.12.07-.25,0.15-0.38,0.22s-0.25.15-.38,0.23-0.25.15-.37,0.23h0c-0.13.08-.25,0.15-0.38,0.23s-0.24.16-.37,0.24-0.24.17-.37,0.25-0.24.16-.36,0.25-0.24.17-.37,0.25-0.24.18-.36,0.26h0c-0.12.09-.24,0.18-0.35,0.27h0l-0.36.27c-0.12.09-.24,0.18-0.35,0.27h0c-0.12.09-.24,0.19-0.35,0.28s-0.23.19-.35,0.28h0c-0.12.1-.23,0.2-0.34,0.29h0c-0.12.1-.23,0.2-0.35,0.3h0l-0.33.3h0c-0.12.1-.23,0.2-0.34,0.3s-0.22.21-.33,0.31-0.22.21-.33,0.31h0c-0.11.11-.22,0.21-0.32,0.32h0c-0.11.11-.22,0.22-0.33,0.32h0c-0.1.11-.21,0.22-0.32,0.33h0c-0.1.11-.21,0.22-0.31,0.34h0c-0.11.11-.21,0.22-0.31,0.33h0c-0.11.12-.21,0.23-0.31,0.35h0l-0.31.34h0c-0.1.12-.2,0.24-0.3,0.35h0l-0.3.36h0a36,36,0,0,0-2.49,42.35l-1.25-.41v0.01a1.634,1.634,0,0,0-.88-0.04,1.609,1.609,0,0,0-1.2,1.21,39.267,39.267,0,0,1,3.33-45.17h0c0.11-.13.21-0.26,0.32-0.39h0c0.11-.13.22-0.26,0.33-0.38h0c0.11-.13.22-0.26,0.33-0.38h0c0.11-.13.23-0.25,0.34-0.38h0c0.11-.12.23-0.24,0.34-0.37h0c0.11-.12.23-0.24,0.34-0.36h0c0.12-.12.23-0.24,0.35-0.36s0.24-.23.35-0.35h0c0.12-.11.24-0.23,0.36-0.35s0.24-.22.36-0.34h0l0.36-.33h0l0.36-.33h0c0.12-.11.25-0.22,0.37-0.33s0.25-.21.37-0.32h0l0.38-.32c0.12-.1.25-0.2,0.38-0.31h0c0.12-.1.25-0.2,0.38-0.3s0.25-.2.38-0.3h0c0.13-.1.26-0.2,0.39-0.29s0.26-.2.39-0.29,0.26-.19.39-0.28,0.27-.19.4-0.28,0.27-.18.4-0.27,0.27-.18.4-0.27,0.27-.18.41-0.26,0.27-.18.4-0.26,0.28-.17.41-0.25,0.28-.17.42-0.25,0.27-.16.41-0.24h0c0.14-.08.28-0.15,0.42-0.23s0.28-.16.42-0.23,0.28-.15.42-0.22,0.28-.15.43-0.22,0.28-.15.42-0.22,0.29-.14.43-0.2h0c0.14-.07.29-0.14,0.43-0.21s0.29-.13.43-0.19,0.29-.13.44-0.19,0.29-.13.44-0.19,0.29-.12.44-0.18,0.29-.12.44-0.18,0.29-.11.44-0.17,0.29-.11.44-0.16,0.3-.11.45-0.16l0.45-.15,0.45-.15c0.15-.05.3-0.09,0.45-0.14h0c0.15-.05.3-0.09,0.45-0.14s0.3-.09.45-0.13,0.3-.08.46-0.12a3.745,3.745,0,0,1,.45-0.12l0.46-.12c0.15-.04.3-0.07,0.46-0.11s0.3-.07.46-0.1h0c0.15-.04.3-0.07,0.46-0.1h0l0.46-.09,0.46-.09h0c0.16-.03.31-0.05,0.47-0.08s0.31-.05.46-0.08h0c0.16-.02.31-0.04,0.47-0.07h0l0.46-.06h0l0.47-.06h0c0.15-.02.31-0.04,0.47-0.05h0c0.15-.02.31-0.04,0.46-0.05s0.32-.03.47-0.05h0l0.47-.03,0.47-.03h0l0.47-.03h0c0.16-.01.31-0.01,0.47-0.02s0.31-.01.47-0.01,0.31-.01.47-0.01,0.32-.01.47-0.01h0c0.16,0,.32,0,0.47.01h0.47c0.16,0.01.32,0.01,0.47,0.02s0.32,0.01.48,0.02h0c0.15,0,.31.01,0.47,0.02l0.47,0.03h0c0.15,0.01.31,0.03,0.47,0.04h0c0.15,0.01.31,0.03,0.47,0.04h0c0.15,0.02.31,0.03,0.47,0.05s0.31,0.03.47,0.05l0.46,0.06c0.16,0.02.32,0.04,0.47,0.07s0.32,0.04.47,0.07h0c0.16,0.02.31,0.04,0.47,0.07h0c0.15,0.03.31,0.05,0.46,0.08s0.32,0.06.47,0.09h0l0.47,0.09h0c0.15,0.04.31,0.07,0.46,0.1h0c0.15,0.04.31,0.07,0.46,0.11s0.31,0.07.47,0.11h0c0.15,0.03.3,0.07,0.46,0.11h0c0.15,0.04.3,0.08,0.46,0.12h0c0.15,0.05.3,0.09,0.46,0.13s0.3,0.09.46,0.14h0c0.15,0.04.3,0.09,0.45,0.13s0.31,0.1.46,0.15h0l0.45,0.15h0c0.15,0.05.31,0.1,0.46,0.16h0c0.15,0.05.3,0.1,0.45,0.16s0.3,0.11.45,0.16h0l0.45,0.18h0c0.15,0.06.3,0.12,0.44,0.18h0l0.45,0.18h0c0.15,0.07.3,0.13,0.44,0.19h0c0.15,0.07.3,0.13,0.45,0.2h0c0.14,0.07.29,0.13,0.44,0.2h0c0.14,0.07.29,0.14,0.43,0.21s0.3,0.14.44,0.22,0.29,0.14.44,0.22h0c0.14,0.07.28,0.14,0.43,0.22h0c0.14,0.08.29,0.15,0.43,0.23s0.28,0.16.43,0.24h0l0.42,0.24h0c0.15,0.08.29,0.17,0.43,0.25h0c0.14,0.09.28,0.17,0.42,0.26h0c0.14,0.08.28,0.17,0.42,0.26h0c0.14,0.09.28,0.17,0.42,0.26s0.27,0.19.41,0.28h0c0.14,0.09.28,0.18,0.41,0.28h0c0.14,0.09.28,0.18,0.41,0.28h0l0.41,0.29h0c0.13,0.1.27,0.2,0.4,0.3h0c0.14,0.1.27,0.2,0.41,0.3h0c0.13,0.1.26,0.2,0.39,0.31h0c0.14,0.1.27,0.2,0.4,0.31h0c0.13,0.11.26,0.21,0.39,0.32h0l0.11,0.09h0l0.01,0.01a39.22,39.22,0,0,1,5.22,55.1l-0.09.11v0.01Z" transform="translate(-1600.13 -4684.97)"/>
</svg>
