<?xml version="1.0" encoding="UTF-8"?>
<svg width="2em" height="2em" viewBox="0 0 60 60" version="1.1" xmlns="http://www.w3.org/2000/svg" xmlns:xlink="http://www.w3.org/1999/xlink">
    <style>
      .cls-1 {
        fill: #fff;
        fill-rule: evenodd;
      }
    </style>
    <g id="Page-1" stroke="none" stroke-width="1">
        <path class='cls-1' d="M29.8828125,59.8125 C34.0234375,59.8125 37.9101562,59.03125 41.5429688,57.46875 C45.1757812,55.90625 48.3398438,53.7578125 51.0351562,51.0234375 C53.7304688,48.2890625 55.859375,45.1054688 57.421875,41.4726562 C58.984375,37.8398438 59.765625,33.9921875 59.765625,29.9296875 C59.765625,25.7890625 58.984375,21.9023438 57.421875,18.2695312 C55.859375,14.6367188 53.7304688,11.4726562 51.0351562,8.77734375 C48.3398438,6.08203125 45.1757812,3.953125 41.5429688,2.390625 C37.9101562,0.828125 34.0234375,0.046875 29.8828125,0.046875 C25.7421875,0.046875 21.8554688,0.828125 18.2226562,2.390625 C14.5898438,3.953125 11.4257812,6.08203125 8.73046875,8.77734375 C6.03515625,11.4726562 3.90625,14.6367188 2.34375,18.2695312 C0.78125,21.9023438 0,25.7890625 0,29.9296875 C0,31.3359375 0.09765625,32.7421875 0.29296875,34.1484375 C0.48828125,35.5546875 0.78125,36.9023438 1.171875,38.1914062 C1.5625,39.4804688 2.03125,40.75 2.578125,42 C3.125,43.25 3.75,44.421875 4.453125,45.515625 C4.453125,45.515625 4.47265625,45.4765625 4.51171875,45.3984375 C4.55078125,45.3203125 4.5703125,45.2617188 4.5703125,45.2226562 C4.5703125,45.1835938 4.58984375,45.125 4.62890625,45.046875 C4.66796875,44.96875 4.7265625,44.9296875 4.8046875,44.9296875 C4.8828125,44.8515625 4.9609375,44.7734375 5.0390625,44.6953125 C5.1171875,44.6171875 5.21484375,44.578125 5.33203125,44.578125 L5.9765625,44.578125 L5.9765625,44.578125 L7.03125,44.9296875 C6.25,43.8359375 5.5859375,42.703125 5.0390625,41.53125 C4.4921875,40.359375 4.0234375,39.1484375 3.6328125,37.8984375 C3.2421875,36.6484375 2.94921875,35.3398438 2.75390625,33.9726562 C2.55859375,32.6054688 2.4609375,31.2578125 2.4609375,29.9296875 C2.4609375,26.1015625 3.18359375,22.5273438 4.62890625,19.2070312 C6.07421875,15.8867188 8.02734375,12.9765625 10.4882812,10.4765625 C12.9492188,7.9765625 15.859375,6.0234375 19.21875,4.6171875 C22.578125,3.2109375 26.1328125,2.5078125 29.8828125,2.5078125 C33.7109375,2.5078125 37.2851562,3.2109375 40.6054688,4.6171875 C43.9257812,6.0234375 46.8164062,7.9765625 49.2773438,10.4765625 C51.7382812,12.9765625 53.6914062,15.8867188 55.1367188,19.2070312 C56.5820312,22.5273438 57.3046875,26.1015625 57.3046875,29.9296875 C57.3046875,33.6796875 56.5820312,37.2148438 55.1367188,40.5351562 C53.6914062,43.8554688 51.7382812,46.765625 49.2773438,49.265625 C46.8164062,51.765625 43.9257812,53.7382812 40.6054688,55.1835938 C37.2851562,56.6289062 33.7109375,57.3515625 29.8828125,57.3515625 C28.3984375,57.3515625 26.9335938,57.2148438 25.4882812,56.9414062 C24.0429688,56.6679688 22.6367188,56.3164062 21.2695312,55.8867188 C19.9023438,55.4570312 18.5742188,54.9101562 17.2851562,54.2460938 C15.9960938,53.5820312 14.8046875,52.8203125 13.7109375,51.9609375 L13.59375,51.9609375 L13.59375,51.9609375 C13.4375,51.8046875 13.28125,51.6679688 13.125,51.5507812 C12.96875,51.4335938 12.8125,51.3164062 12.65625,51.1992188 C12.5,51.0820312 12.34375,50.9648438 12.1875,50.8476562 C12.03125,50.7304688 11.9140625,50.59375 11.8359375,50.4375 C11.7578125,50.4375 11.6796875,50.3984375 11.6015625,50.3203125 C11.5234375,50.2421875 11.4453125,50.1640625 11.3671875,50.0859375 C11.2890625,50.0078125 11.2109375,49.9296875 11.1328125,49.8515625 C11.0546875,49.7734375 10.9765625,49.734375 10.8984375,49.734375 L12.65625,47.9765625 L5.625,45.75 L7.265625,53.25 L9.140625,51.375 C9.21875,51.453125 9.296875,51.53125 9.375,51.609375 L9.609375,51.84375 L9.609375,51.84375 C9.66145833,51.8958333 9.71354167,51.9392361 9.765625,51.9739583 L9.84375,52.0195312 C9.89583333,52.0455729 9.94791667,52.0802951 10,52.1236979 L10.078125,52.1953125 L10.078125,52.1953125 L10.078125,52.3125 L10.078125,52.3125 C10.15625,52.3125 10.234375,52.3515625 10.3125,52.4296875 L10.4882812,52.6054688 L10.4882812,52.6054688 C10.5273438,52.6445312 10.5859375,52.703125 10.6640625,52.78125 C10.7421875,52.859375 10.8203125,52.8984375 10.8984375,52.8984375 C10.8984375,52.9765625 10.9179688,53.015625 10.9570312,53.015625 C10.9960938,53.015625 11.015625,53.0351562 11.015625,53.0742188 C11.015625,53.1132812 11.0351562,53.1328125 11.0742188,53.1328125 L11.1328125,53.1328125 L11.1328125,53.1328125 C11.2109375,53.2109375 11.2890625,53.2695312 11.3671875,53.3085938 C11.4453125,53.3476562 11.5234375,53.40625 11.6015625,53.484375 C11.6536458,53.5364583 11.6970486,53.5798611 11.7317708,53.6145833 L11.8815104,53.7643229 C11.9032118,53.7860243 11.9270833,53.8098958 11.953125,53.8359375 C11.953125,53.8359375 11.9726562,53.8554688 12.0117188,53.8945312 C12.0507812,53.9335938 12.0898438,53.953125 12.1289062,53.953125 C12.1679688,53.953125 12.2070312,53.9726562 12.2460938,54.0117188 C12.2851562,54.0507812 12.3046875,54.0703125 12.3046875,54.0703125 C12.3828125,54.0703125 12.4414062,54.0898438 12.4804688,54.1289062 C12.5195312,54.1679688 12.5585938,54.2070312 12.5976562,54.2460938 C12.6367188,54.2851562 12.6757812,54.3242188 12.7148438,54.3632812 C12.7539062,54.4023438 12.8125,54.421875 12.890625,54.421875 C14.0625,55.28125 15.3320312,56.0429688 16.6992188,56.7070312 C18.0664062,57.3710938 19.453125,57.9375 20.859375,58.40625 C22.265625,58.875 23.7304688,59.2265625 25.2539062,59.4609375 C26.7773438,59.6953125 28.3203125,59.8125 29.8828125,59.8125 Z M29.8828125,55.59375 C33.4765625,55.59375 36.8164062,54.9296875 39.9023438,53.6015625 C42.9882812,52.2734375 45.703125,50.4375 48.046875,48.09375 C50.390625,45.75 52.2265625,43.015625 53.5546875,39.890625 C54.8828125,36.765625 55.546875,33.4453125 55.546875,29.9296875 C55.546875,26.4140625 54.8828125,23.09375 53.5546875,19.96875 C52.2265625,16.84375 50.390625,14.109375 48.046875,11.765625 C45.703125,9.421875 42.9882812,7.5859375 39.9023438,6.2578125 C36.8164062,4.9296875 33.4765625,4.265625 29.8828125,4.265625 C26.3671875,4.265625 23.046875,4.9296875 19.921875,6.2578125 C16.796875,7.5859375 14.0625,9.421875 11.71875,11.765625 C9.375,14.109375 7.5390625,16.84375 6.2109375,19.96875 C4.8828125,23.09375 4.21875,26.4140625 4.21875,29.9296875 C4.21875,31.4140625 4.3359375,32.859375 4.5703125,34.265625 C4.8046875,35.671875 5.15625,37.0390625 5.625,38.3671875 C6.09375,39.6953125 6.66015625,40.9648438 7.32421875,42.1757812 C7.98828125,43.3867188 8.75,44.5390625 9.609375,45.6328125 C11.40625,46.2578125 13.0273438,46.4726562 14.4726562,46.2773438 C15.9179688,46.0820312 17.1289062,45.7695312 18.1054688,45.3398438 C19.0820312,44.9101562 19.8242188,44.4414062 20.3320312,43.9335938 C20.8398438,43.4257812 21.09375,43.171875 21.09375,43.171875 C20.859375,43.171875 20.5859375,43.1523438 20.2734375,43.1132812 C19.9609375,43.0742188 19.6679688,42.9960938 19.3945312,42.8789062 C19.1210938,42.7617188 18.8671875,42.625 18.6328125,42.46875 C18.3984375,42.3125 18.2421875,42.078125 18.1640625,41.765625 C18.0859375,41.453125 18.1054688,41.1601562 18.2226562,40.8867188 C18.3398438,40.6132812 18.515625,40.3789062 18.75,40.1835938 C18.984375,39.9882812 19.1992188,39.8320312 19.3945312,39.7148438 C19.5898438,39.5976562 19.6875,39.5390625 19.6875,39.5390625 C18.90625,39.6171875 18.1835938,39.5390625 17.5195312,39.3046875 C16.8554688,39.0703125 16.3085938,38.7773438 15.8789062,38.4257812 C15.4492188,38.0742188 15.15625,37.7226562 15,37.3710938 C14.84375,37.0195312 14.84375,36.8046875 15,36.7265625 C15.078125,36.6484375 15.2539062,36.5507812 15.5273438,36.4335938 C15.8007812,36.3164062 16.0742188,36.21875 16.3476562,36.140625 C16.6210938,36.0625 16.8554688,35.984375 17.0507812,35.90625 C17.2460938,35.828125 17.34375,35.7890625 17.34375,35.7890625 C16.5625,35.6328125 15.859375,35.3398438 15.234375,34.9101562 C14.609375,34.4804688 14.1015625,34.0507812 13.7109375,33.6210938 C13.3203125,33.1914062 13.046875,32.78125 12.890625,32.390625 C12.734375,32 12.734375,31.765625 12.890625,31.6875 C13.046875,31.609375 13.2617188,31.5507813 13.5351562,31.5117188 C13.8085938,31.4726562 14.0820312,31.4335937 14.3554688,31.3945313 C14.6289062,31.3554688 14.84375,31.3359375 15,31.3359375 L15.234375,31.3359375 L15.234375,31.3359375 C14.296875,30.7109375 13.59375,30.1054688 13.125,29.5195312 C12.65625,28.9335938 12.34375,28.3867188 12.1875,27.8789062 C12.03125,27.3710938 11.9921875,26.9609375 12.0703125,26.6484375 C12.1484375,26.3359375 12.1875,26.1796875 12.1875,26.1796875 C14.84375,26.9609375 17.0507812,27.78125 18.8085938,28.640625 C20.5664062,29.5 21.9726562,30.28125 23.0273438,30.984375 C24.0820312,31.6875 24.8046875,32.2734375 25.1953125,32.7421875 C25.5859375,33.2109375 25.78125,33.4453125 25.78125,33.4453125 C26.5625,31.3359375 27.3242188,29.6367188 28.0664062,28.3476562 C28.8085938,27.0585938 29.4921875,26.0429688 30.1171875,25.3007812 C30.7421875,24.5585938 31.25,24.0507812 31.640625,23.7773438 C32.03125,23.5039062 32.2265625,23.3671875 32.2265625,23.3671875 L32.2265625,23.6015625 L32.2265625,23.6015625 C32.2265625,23.6796875 32.2070312,23.7773438 32.1679688,23.8945312 C32.1289062,24.0117188 32.109375,24.109375 32.109375,24.1875 L32.109375,24.3046875 L32.109375,24.3046875 C32.421875,24.0703125 32.7148438,23.875 32.9882812,23.71875 C33.2617188,23.5625 33.4960938,23.4257812 33.6914062,23.3085938 C33.8867188,23.1914062 34.0820312,23.1132812 34.2773438,23.0742188 C34.4726562,23.0351562 34.609375,23.0546875 34.6875,23.1328125 C34.84375,23.2109375 34.8632812,23.328125 34.7460938,23.484375 C34.6289062,23.640625 34.4921875,23.7773438 34.3359375,23.8945312 L33.8671875,24.2460938 L33.8671875,24.2460938 C33.7109375,24.3632812 33.6328125,24.421875 33.6328125,24.421875 C33.6328125,24.421875 33.7695312,24.3632812 34.0429688,24.2460938 C34.3164062,24.1289062 34.6484375,24.0117188 35.0390625,23.8945312 C35.4296875,23.7773438 35.78125,23.6992188 36.09375,23.6601562 C36.40625,23.6210938 36.6015625,23.71875 36.6796875,23.953125 C36.7578125,24.1875 36.71875,24.3632812 36.5625,24.4804688 C36.40625,24.5976562 36.1914062,24.7148438 35.9179688,24.8320312 C35.6445312,24.9492188 35.3710938,25.0273438 35.0976562,25.0664062 C34.8242188,25.1054688 34.6484375,25.1640625 34.5703125,25.2421875 C34.4140625,25.2421875 34.2773438,25.28125 34.1601562,25.359375 C34.0429688,25.4375 33.9257812,25.4960938 33.8085938,25.5351562 C33.6914062,25.5742188 33.59375,25.6328125 33.515625,25.7109375 C33.4375,25.7890625 33.3984375,25.828125 33.3984375,25.828125 L34.1015625,25.828125 L34.1015625,25.828125 C34.5703125,25.828125 35.1171875,25.90625 35.7421875,26.0625 C36.3671875,26.21875 37.0507812,26.4921875 37.7929688,26.8828125 C38.5351562,27.2734375 39.21875,27.8203125 39.84375,28.5234375 C40.46875,29.3046875 40.9375,30.0078125 41.25,30.6328125 C41.5625,31.2578125 41.8164062,31.8046875 42.0117188,32.2734375 C42.2070312,32.7421875 42.3242188,33.09375 42.3632812,33.328125 C42.4023438,33.5625 42.421875,33.6796875 42.421875,33.6796875 C43.046875,33.8359375 43.6523438,33.8945312 44.2382812,33.8554688 C44.8242188,33.8164062 45.3515625,33.7578125 45.8203125,33.6796875 C46.2890625,33.6015625 46.640625,33.5039062 46.875,33.3867188 C47.109375,33.2695312 47.2265625,33.2109375 47.2265625,33.2109375 C47.1484375,33.6796875 46.875,34.0703125 46.40625,34.3828125 C45.9375,34.6953125 45.4492188,34.96875 44.9414062,35.203125 C44.4335938,35.4375 43.984375,35.6132812 43.59375,35.7304688 C43.203125,35.8476562 43.0078125,35.90625 43.0078125,35.90625 C43.5546875,36.0625 44.1015625,36.1796875 44.6484375,36.2578125 C45.1953125,36.3359375 45.6445312,36.375 45.9960938,36.375 C46.3476562,36.375 46.640625,36.3554688 46.875,36.3164062 C47.109375,36.2773438 47.2265625,36.2578125 47.2265625,36.2578125 C46.9921875,36.7265625 46.6015625,37.078125 46.0546875,37.3125 C45.5078125,37.546875 44.9609375,37.7226562 44.4140625,37.8398438 C43.8671875,37.9570312 43.3984375,38.015625 43.0078125,38.015625 L42.421875,38.015625 L42.421875,38.015625 C42.265625,38.796875 41.953125,39.7539062 41.484375,40.8867188 C41.015625,42.0195312 40.3125,43.1523438 39.375,44.2851562 C38.4375,45.4179688 37.1875,46.5507812 35.625,47.6835938 C34.0625,48.8164062 32.1484375,49.7734375 29.8828125,50.5546875 C27.7734375,51.3359375 25.78125,51.765625 23.90625,51.84375 C22.03125,51.921875 20.390625,51.84375 18.984375,51.609375 C17.578125,51.375 16.40625,51.0625 15.46875,50.671875 C14.53125,50.28125 13.984375,50.046875 13.828125,49.96875 C14.921875,50.828125 16.09375,51.609375 17.34375,52.3125 C18.59375,53.015625 19.8828125,53.6210938 21.2109375,54.1289062 C22.5390625,54.6367188 23.9453125,55.0078125 25.4296875,55.2421875 C26.9140625,55.4765625 28.3984375,55.59375 29.8828125,55.59375 Z" id="" fill="#000000" fill-rule="nonzero"></path>
    </g>
</svg>