<svg id="YouTube" xmlns="http://www.w3.org/2000/svg" width="2em" height="2em" viewBox="0 0 78.43 78.44">
  <defs>
    <style>
      .cls-1 {
        fill: #fff;
        fill-rule: evenodd;
      }
    </style>
  </defs>
  <path id="Shape_576_copy_13" data-name="Shape 576 copy 13" class="cls-1" d="M1552.02,4865.49a39.223,39.223,0,0,1-55.1,5.22l-0.02-.02-0.02-.01h0l-0.02-.02-0.02-.01h0l-0.02-.02-0.01-.01-0.01-.01-0.02-.01-0.01-.01-0.01-.01-0.04-.03-0.02-.02h0l-0.02-.02-0.02-.01h0l-0.04-.04-0.02-.01c-0.67-.57-1.31-1.14-1.92-1.72l-0.19-.19-2.34,2.16-2.33-9.66,9.42,3.1-2.37,2.2,0.05,0.05c0.38,0.36.75,0.71,1.14,1.05h0c0.19,0.17.38,0.33,0.58,0.5h0l0.03,0.02v0.01h0.01l0.04,0.04,0.02,0.01h0l0.01,0.01,0.02,0.02h0l0.01,0.01,0.02,0.01v0.01h0.01l0.01,0.01,0.02,0.02h0l0.01,0.01,0.02,0.01h0l0.01,0.01,0.02,0.01v0.01l0.01,0.01,0.02,0.01,0.01,0.01h0l0.01,0.01,0.02,0.01a35.98,35.98,0,0,0,50.64-4.89h0.01a36,36,0,0,0-4.9-50.65h0v-0.01c-0.12-.09-0.24-0.19-0.36-0.29h0c-0.12-.1-0.25-0.19-0.37-0.29h0c-0.12-.09-0.24-0.19-0.36-0.28h0c-0.13-.09-0.25-0.18-0.37-0.28h0c-0.12-.09-0.25-0.18-0.37-0.27h0c-0.13-.09-0.25-0.18-0.37-0.26h-0.01c-0.12-.09-0.25-0.18-0.37-0.26v-0.01c-0.13-.08-0.25-0.17-0.38-0.25h0c-0.13-.09-0.25-0.17-0.38-0.25h0c-0.13-.08-0.25-0.16-0.38-0.24v-0.01c-0.13-.08-0.26-0.16-0.39-0.23v-0.01c-0.13-.07-0.26-0.15-0.38-0.23h-0.01c-0.12-.08-0.25-0.15-0.38-0.23h-0.01c-0.12-.07-0.25-0.15-0.38-0.22h-0.01c-0.13-.07-0.26-0.15-0.39-0.22h0l-0.39-.21h0c-0.14-.07-0.27-0.14-0.4-0.21h0c-0.13-.07-0.27-0.13-0.4-0.2h0c-0.13-.07-0.27-0.13-0.4-0.2h0c-0.13-.06-0.27-0.12-0.4-0.19h0c-0.14-.06-0.27-0.12-0.41-0.18h0c-0.13-.06-0.27-0.12-0.4-0.18h0c-0.14-.06-0.27-0.12-0.41-0.18h0c-0.14-.06-0.27-0.11-0.41-0.17h0c-0.14-.05-0.27-0.11-0.41-0.16h0c-0.14-.06-0.27-0.11-0.41-0.16h0c-0.14-.05-0.28-0.1-0.41-0.15h0a3.523,3.523,0,0,0-.42-0.15h0c-0.14-.05-0.28-0.1-0.41-0.15h-0.01c-0.13-.04-0.27-0.09-0.41-0.13v-0.01c-0.14-.04-0.28-0.08-0.42-0.13h0l-0.42-.12c-0.12-.04-0.24-0.08-0.36-0.11l-0.06-.02h0c-0.14-.04-0.28-0.08-0.42-0.11h0l-0.42-.12h-0.01c-0.14-.03-0.28-0.07-0.42-0.1h0c-0.14-.04-0.28-0.07-0.42-0.1h0c-0.14-.04-0.29-0.07-0.43-0.1h0l-0.42-.09h0c-0.15-.03-0.29-0.06-0.43-0.08h0c-0.14-.03-0.29-0.06-0.43-0.08h0c-0.14-.03-0.28-0.06-0.43-0.08h0c-0.14-.02-0.28-0.05-0.42-0.07h-0.01l-0.42-.06h0l-0.43-.06h0l-0.43-.06h-0.01c-0.14-.01-0.28-0.03-0.43-0.05h0c-0.14-.01-0.28-0.03-0.43-0.04h0c-0.14-.01-0.28-0.03-0.43-0.04h0l-0.43-.03h0l-0.43-.03h0c-0.15-.01-0.29-0.02-0.43-0.02h0c-0.15-.01-0.29-0.01-0.44-0.02h0c-0.14,0-.28-0.01-0.43-0.01h0c-0.14-.01-0.29-0.01-0.43-0.01h-0.86c-0.15,0-.29.01-0.44,0.01h0c-0.14,0-.28.01-0.43,0.01h0c-0.14.01-.29,0.01-0.43,0.02h0l-0.43.03h0c-0.29.01-.57,0.03-0.86,0.06-0.14.01-.29,0.02-0.43,0.04h0c-0.14.01-.29,0.02-0.43,0.04s-0.29.03-.43,0.05h0c-0.14.02-.28,0.04-0.43,0.05l-0.42.06c-0.15.02-.29,0.05-0.43,0.07s-0.29.04-.43,0.07h0c-0.14.02-.28,0.05-0.42,0.07h0c-0.14.03-.29,0.05-0.43,0.08l-0.42.09-0.42.09h0c-0.14.03-.28,0.06-0.43,0.09s-0.28.07-.42,0.1h0c-0.14.04-.28,0.07-0.42,0.11s-0.27.07-.41,0.11-0.28.07-.42,0.11h0l-0.42.12c-0.14.04-.27,0.09-0.41,0.13s-0.28.08-.41,0.13-0.28.09-.42,0.13-0.27.1-.41,0.15-0.27.09-.41,0.14-0.27.1-.4,0.15-0.27.1-.41,0.16-0.27.1-.4,0.16-0.27.11-.41,0.16-0.26.12-.4,0.17-0.26.12-.4,0.18l-0.39.18c-0.13.06-.27,0.12-0.4,0.18s-0.26.13-.39,0.2-0.26.12-.39,0.19-0.26.13-.39,0.2l-0.39.21c-0.13.07-.26,0.14-0.38,0.21l-0.39.21c-0.12.07-.25,0.15-0.38,0.22s-0.25.15-.38,0.23-0.25.15-.37,0.23h0c-0.13.08-.25,0.15-0.38,0.23s-0.24.16-.37,0.24-0.24.17-.37,0.25-0.24.16-.36,0.25-0.24.17-.37,0.25-0.24.18-.36,0.26h0c-0.12.09-.24,0.18-0.35,0.27h0l-0.36.27c-0.12.09-.24,0.18-0.35,0.27h0c-0.12.09-.24,0.19-0.35,0.28s-0.23.19-.35,0.28h0c-0.12.1-.23,0.2-0.34,0.29h0c-0.12.1-.23,0.2-0.35,0.3h0l-0.33.3h0c-0.12.1-.23,0.2-0.34,0.3s-0.22.21-.33,0.31-0.22.21-.33,0.31h0c-0.11.11-.22,0.21-0.32,0.32h0c-0.11.11-.22,0.22-0.33,0.32h0c-0.1.11-.21,0.22-0.32,0.33h0c-0.1.11-.21,0.22-0.31,0.34h0c-0.11.11-.21,0.22-0.31,0.33h0c-0.11.12-.21,0.23-0.31,0.35h0l-0.31.34h0c-0.1.12-.2,0.24-0.3,0.35h0l-0.3.36h0a36,36,0,0,0-2.49,42.35l-1.25-.41v0.01a1.634,1.634,0,0,0-.88-0.04,1.609,1.609,0,0,0-1.2,1.21,39.267,39.267,0,0,1,3.33-45.17h0c0.11-.13.21-0.26,0.32-0.39h0l0.33-.39h0c0.11-.12.22-0.25,0.33-0.37h0c0.11-.13.23-0.25,0.34-0.38h0c0.11-.12.23-0.24,0.34-0.37h0c0.11-.12.23-0.24,0.34-0.36h0c0.12-.12.24-0.24,0.35-0.36s0.24-.23.35-0.35h0c0.12-.11.24-0.23,0.36-0.34s0.24-.23.36-0.35h0l0.36-.33h0l0.36-.33h0c0.12-.11.25-0.22,0.37-0.33s0.25-.21.37-0.32h0l0.38-.32c0.12-.1.25-0.2,0.38-0.31h0c0.12-.1.25-0.2,0.38-0.3s0.25-.2.38-0.3h0c0.13-.1.26-0.2,0.39-0.29s0.26-.2.39-0.29,0.26-.19.39-0.28,0.27-.19.4-0.28,0.27-.18.4-0.27,0.27-.18.4-0.27,0.27-.18.41-0.26,0.27-.18.4-0.26,0.28-.17.41-0.25,0.28-.17.42-0.25,0.27-.16.41-0.24h0c0.14-.08.28-0.15,0.42-0.23s0.28-.16.42-0.23,0.28-.15.42-0.22,0.28-.15.43-0.22,0.28-.15.42-0.22,0.29-.14.43-0.2h0c0.14-.07.29-0.14,0.43-0.21s0.29-.13.43-0.19,0.29-.13.44-0.19,0.29-.13.44-0.19,0.29-.12.44-0.18,0.29-.12.44-0.18,0.29-.11.44-0.17,0.29-.11.44-0.16,0.3-.11.45-0.16l0.45-.15,0.45-.15c0.15-.05.3-0.09,0.45-0.14h0c0.15-.05.3-0.09,0.45-0.14s0.3-.09.45-0.13,0.3-.08.46-0.12a3.745,3.745,0,0,1,.45-0.12l0.46-.12c0.15-.04.3-0.07,0.46-0.11s0.3-.07.46-0.1h0c0.15-.04.3-0.07,0.46-0.1h0l0.46-.09,0.46-.09h0c0.16-.03.31-0.05,0.47-0.08s0.31-.05.46-0.08h0c0.16-.02.31-0.04,0.47-0.07h0l0.46-.06h0l0.47-.06h0c0.16-.02.31-0.04,0.47-0.05h0c0.15-.02.31-0.04,0.46-0.05s0.32-.03.47-0.05h0l0.47-.03,0.47-.03h0l0.47-.03h0c0.16-.01.31-0.01,0.47-0.02s0.31-.01.47-0.01,0.32-.01.47-0.01,0.32-.01.47-0.01h0c0.16,0,.32.01,0.47,0.01h0.47c0.16,0.01.32,0.01,0.47,0.02s0.32,0.01.48,0.02h0c0.15,0,.31.01,0.47,0.02l0.47,0.03h0c0.15,0.01.31,0.03,0.47,0.04h0c0.15,0.01.31,0.03,0.47,0.04h0c0.15,0.02.31,0.03,0.47,0.05s0.31,0.03.47,0.05l0.46,0.06c0.16,0.02.32,0.04,0.47,0.07s0.32,0.04.47,0.07h0c0.16,0.02.31,0.05,0.47,0.07h0c0.15,0.03.31,0.05,0.46,0.08s0.32,0.06.47,0.09h0l0.47,0.09h0c0.15,0.04.31,0.07,0.46,0.1h0c0.15,0.04.31,0.07,0.46,0.11s0.31,0.07.47,0.11h0c0.15,0.03.3,0.07,0.46,0.11h0c0.15,0.04.3,0.08,0.46,0.12h0c0.15,0.05.3,0.09,0.46,0.13s0.3,0.09.46,0.14h0c0.15,0.04.3,0.09,0.45,0.13s0.31,0.1.46,0.15h0l0.45,0.15h0c0.15,0.05.31,0.1,0.46,0.15h0c0.15,0.06.3,0.11,0.45,0.17s0.3,0.11.45,0.16h0l0.45,0.18h0c0.15,0.06.3,0.12,0.44,0.18h0l0.45,0.18h0c0.15,0.07.3,0.13,0.44,0.19h0c0.15,0.07.3,0.13,0.45,0.2h0c0.14,0.07.29,0.13,0.44,0.2h0c0.14,0.07.29,0.14,0.43,0.21s0.3,0.14.44,0.22,0.29,0.14.44,0.22h0c0.14,0.07.28,0.14,0.43,0.22h0c0.14,0.08.29,0.15,0.43,0.23s0.28,0.16.43,0.24h0l0.42,0.24h0c0.15,0.08.29,0.17,0.43,0.25h0c0.14,0.09.28,0.17,0.42,0.26h0c0.14,0.08.28,0.17,0.42,0.26h0c0.14,0.09.28,0.17,0.42,0.26s0.27,0.18.41,0.28h0c0.14,0.09.28,0.18,0.41,0.28h0c0.14,0.09.28,0.18,0.41,0.28h0l0.41,0.29h0c0.13,0.1.27,0.2,0.4,0.3h0c0.14,0.1.27,0.2,0.41,0.3h0c0.13,0.1.26,0.2,0.39,0.31h0c0.14,0.1.27,0.2,0.4,0.31h0c0.13,0.11.26,0.21,0.39,0.32h0l0.11,0.09h0l0.01,0.01a39.22,39.22,0,0,1,5.22,55.1l-0.09.11v0.01Z" transform="translate(-1482.63 -4801.22)"/>
  <path class="cls-1" d="M1529.55,4823.8v7.58a2.617,2.617,0,0,1-.62.54,1.243,1.243,0,0,1-.58.22,0.5,0.5,0,0,1-.4-0.16,0.769,0.769,0,0,1-.14-0.52v-7.66h-2.05v8.34a2.1,2.1,0,0,0,.36,1.34,1.277,1.277,0,0,0,1.07.45,2.727,2.727,0,0,0,1.2-.3,4.494,4.494,0,0,0,1.16-.95v1.11h2.05v-9.99h-2.05Zm-6.23.48a2.987,2.987,0,0,0-2.09-.74,3.391,3.391,0,0,0-2.22.7,2.262,2.262,0,0,0-.82,1.85v5.17a2.666,2.666,0,0,0,.8,2.03,3.481,3.481,0,0,0,4.33.01,2.522,2.522,0,0,0,.8-2v-5.15A2.454,2.454,0,0,0,1523.32,4824.28Zm-1.29,7.18a0.829,0.829,0,0,1-.24.62,0.892,0.892,0,0,1-.66.24,0.8,0.8,0,0,1-.62-0.24,0.866,0.866,0,0,1-.22-0.62v-5.45a0.619,0.619,0,0,1,.24-0.52,0.839,0.839,0,0,1,.6-0.2,1.037,1.037,0,0,1,.66.2,0.619,0.619,0,0,1,.24.52v5.45Zm-6.33-11.21-1.42,5.42h-0.17l-1.48-5.42h-2.32l2.74,8.18v5.36h2.31v-5.62l2.66-7.92h-2.32Zm15.94,23.84a1.391,1.391,0,0,1,.18.8v0.92h-1.59v-0.92a1.249,1.249,0,0,1,.18-0.8,0.747,0.747,0,0,1,.63-0.26A0.711,0.711,0,0,1,1531.64,4844.09Zm-6.3-.04a0.671,0.671,0,0,0-.56-0.24,0.867,0.867,0,0,0-.38.08,1.542,1.542,0,0,0-.38.28v5.65a1.581,1.581,0,0,0,.44.33,1.075,1.075,0,0,0,.42.1,0.541,0.541,0,0,0,.5-0.21,0.943,0.943,0,0,0,.16-0.62v-4.69A0.987,0.987,0,0,0,1525.34,4844.05Zm0,0a0.671,0.671,0,0,0-.56-0.24,0.867,0.867,0,0,0-.38.08,1.542,1.542,0,0,0-.38.28v5.65a1.581,1.581,0,0,0,.44.33,1.075,1.075,0,0,0,.42.1,0.541,0.541,0,0,0,.5-0.21,0.943,0.943,0,0,0,.16-0.62v-4.69A0.987,0.987,0,0,0,1525.34,4844.05Zm10.29-7H1507.2a5.711,5.711,0,0,0-5.67,5.7v5.79a5.693,5.693,0,0,0,5.67,5.68h28.43a5.693,5.693,0,0,0,5.67-5.68v-5.79A5.711,5.711,0,0,0,1535.63,4837.05Zm-20.77,3.99h-2.13v10.51h-2.04v-10.51h-2.11v-1.78h6.28v1.78Zm5.97,10.51h-1.82v-1a3.321,3.321,0,0,1-1.04.84,2.187,2.187,0,0,1-1.05.3,1.148,1.148,0,0,1-.96-0.42,1.962,1.962,0,0,1-.3-1.2v-7.6h1.8v6.97a0.743,0.743,0,0,0,.12.46,0.39,0.39,0,0,0,.37.14,0.852,0.852,0,0,0,.5-0.2,1.836,1.836,0,0,0,.56-0.48v-6.89h1.82v9.08Zm6.58-1.89a2.3,2.3,0,0,1-.42,1.49,1.542,1.542,0,0,1-1.24.52,2.045,2.045,0,0,1-.95-0.2,2.482,2.482,0,0,1-.78-0.62v0.7h-1.82v-12.29h1.82v3.95a2.8,2.8,0,0,1,.78-0.62,1.879,1.879,0,0,1,.84-0.22,1.593,1.593,0,0,1,1.31.58,2.67,2.67,0,0,1,.46,1.68v5.03Zm6.29-2.42h-3.47v1.7a1.838,1.838,0,0,0,.17.99,0.656,0.656,0,0,0,.62.28,0.7,0.7,0,0,0,.62-0.25,1.853,1.853,0,0,0,.18-1.02v-0.42h1.88v0.46a2.869,2.869,0,0,1-.7,2.11,2.613,2.613,0,0,1-2.02.7,2.481,2.481,0,0,1-1.93-.74,2.945,2.945,0,0,1-.7-2.07v-4.07a2.547,2.547,0,0,1,.78-1.92,2.76,2.76,0,0,1,1.99-.74,2.521,2.521,0,0,1,1.9.7,2.709,2.709,0,0,1,.68,1.96v2.33Zm-8.92-3.43a0.867,0.867,0,0,0-.38.08,1.542,1.542,0,0,0-.38.28v5.65a1.581,1.581,0,0,0,.44.33,1.075,1.075,0,0,0,.42.1,0.541,0.541,0,0,0,.5-0.21,0.943,0.943,0,0,0,.16-0.62v-4.69a0.987,0.987,0,0,0-.2-0.68A0.671,0.671,0,0,0,1524.78,4843.81Zm0.56,0.24a0.671,0.671,0,0,0-.56-0.24,0.867,0.867,0,0,0-.38.08,1.542,1.542,0,0,0-.38.28v5.65a1.581,1.581,0,0,0,.44.33,1.075,1.075,0,0,0,.42.1,0.541,0.541,0,0,0,.5-0.21,0.943,0.943,0,0,0,.16-0.62v-4.69A0.987,0.987,0,0,0,1525.34,4844.05Zm0,0a0.671,0.671,0,0,0-.56-0.24,0.867,0.867,0,0,0-.38.08,1.542,1.542,0,0,0-.38.28v5.65a1.581,1.581,0,0,0,.44.33,1.075,1.075,0,0,0,.42.1,0.541,0.541,0,0,0,.5-0.21,0.943,0.943,0,0,0,.16-0.62v-4.69A0.987,0.987,0,0,0,1525.34,4844.05Z" transform="translate(-1482.63 -4801.22)"/>
</svg>
