<?xml version="1.0" encoding="UTF-8"?>
<svg width="2em" height="2em" viewBox="0 0 60 60" version="1.1" xmlns="http://www.w3.org/2000/svg" xmlns:xlink="http://www.w3.org/1999/xlink">
    <style>
      .cls-1 {
        fill: #fff;
        fill-rule: evenodd;
      }
    </style>
    <g id="Page-1" stroke="none" stroke-width="1">
        <path class='cls-1' d="M29.8828125,59.8125 C34.0234375,59.8125 37.9101562,59.03125 41.5429688,57.46875 C45.1757812,55.90625 48.3398438,53.7578125 51.0351562,51.0234375 C53.7304688,48.2890625 55.859375,45.1054688 57.421875,41.4726562 C58.984375,37.8398438 59.765625,33.9921875 59.765625,29.9296875 C59.765625,25.7890625 58.984375,21.9023438 57.421875,18.2695312 C55.859375,14.6367188 53.7304688,11.4726562 51.0351562,8.77734375 C48.3398438,6.08203125 45.1757812,3.953125 41.5429688,2.390625 C37.9101562,0.828125 34.0234375,0.046875 29.8828125,0.046875 C25.7421875,0.046875 21.8554688,0.828125 18.2226562,2.390625 C14.5898438,3.953125 11.4257812,6.08203125 8.73046875,8.77734375 C6.03515625,11.4726562 3.90625,14.6367188 2.34375,18.2695312 C0.78125,21.9023438 0,25.7890625 0,29.9296875 C0,31.3359375 0.09765625,32.7421875 0.29296875,34.1484375 C0.48828125,35.5546875 0.78125,36.9023438 1.171875,38.1914062 C1.5625,39.4804688 2.03125,40.75 2.578125,42 C3.125,43.25 3.75,44.421875 4.453125,45.515625 C4.453125,45.515625 4.47265625,45.4765625 4.51171875,45.3984375 C4.55078125,45.3203125 4.5703125,45.2617188 4.5703125,45.2226562 C4.5703125,45.1835938 4.58984375,45.125 4.62890625,45.046875 C4.66796875,44.96875 4.7265625,44.9296875 4.8046875,44.9296875 C4.8828125,44.8515625 4.9609375,44.7734375 5.0390625,44.6953125 C5.1171875,44.6171875 5.21484375,44.578125 5.33203125,44.578125 L5.9765625,44.578125 L5.9765625,44.578125 L7.03125,44.9296875 C6.25,43.8359375 5.5859375,42.703125 5.0390625,41.53125 C4.4921875,40.359375 4.0234375,39.1484375 3.6328125,37.8984375 C3.2421875,36.6484375 2.94921875,35.3398438 2.75390625,33.9726562 C2.55859375,32.6054688 2.4609375,31.2578125 2.4609375,29.9296875 C2.4609375,26.1015625 3.18359375,22.5273438 4.62890625,19.2070312 C6.07421875,15.8867188 8.02734375,12.9765625 10.4882812,10.4765625 C12.9492188,7.9765625 15.859375,6.0234375 19.21875,4.6171875 C22.578125,3.2109375 26.1328125,2.5078125 29.8828125,2.5078125 C33.7109375,2.5078125 37.2851562,3.2109375 40.6054688,4.6171875 C43.9257812,6.0234375 46.8164062,7.9765625 49.2773438,10.4765625 C51.7382812,12.9765625 53.6914062,15.8867188 55.1367188,19.2070312 C56.5820312,22.5273438 57.3046875,26.1015625 57.3046875,29.9296875 C57.3046875,33.6796875 56.5820312,37.2148438 55.1367188,40.5351562 C53.6914062,43.8554688 51.7382812,46.765625 49.2773438,49.265625 C46.8164062,51.765625 43.9257812,53.7382812 40.6054688,55.1835938 C37.2851562,56.6289062 33.7109375,57.3515625 29.8828125,57.3515625 C28.3984375,57.3515625 26.9335938,57.2148438 25.4882812,56.9414062 C24.0429688,56.6679688 22.6367188,56.3164062 21.2695312,55.8867188 C19.9023438,55.4570312 18.5742188,54.9101562 17.2851562,54.2460938 C15.9960938,53.5820312 14.8046875,52.8203125 13.7109375,51.9609375 L13.59375,51.9609375 L13.59375,51.9609375 C13.4375,51.8046875 13.28125,51.6679688 13.125,51.5507812 C12.96875,51.4335938 12.8125,51.3164062 12.65625,51.1992188 C12.5,51.0820312 12.34375,50.9648438 12.1875,50.8476562 C12.03125,50.7304688 11.9140625,50.59375 11.8359375,50.4375 C11.7578125,50.4375 11.6796875,50.3984375 11.6015625,50.3203125 C11.5234375,50.2421875 11.4453125,50.1640625 11.3671875,50.0859375 C11.2890625,50.0078125 11.2109375,49.9296875 11.1328125,49.8515625 C11.0546875,49.7734375 10.9765625,49.734375 10.8984375,49.734375 L12.65625,47.9765625 L5.625,45.75 L7.265625,53.25 L9.140625,51.375 C9.21875,51.453125 9.296875,51.53125 9.375,51.609375 L9.609375,51.84375 L9.609375,51.84375 C9.66145833,51.8958333 9.71354167,51.9392361 9.765625,51.9739583 L9.84375,52.0195312 C9.89583333,52.0455729 9.94791667,52.0802951 10,52.1236979 L10.078125,52.1953125 L10.078125,52.1953125 L10.078125,52.3125 L10.078125,52.3125 C10.15625,52.3125 10.234375,52.3515625 10.3125,52.4296875 L10.4882812,52.6054688 L10.4882812,52.6054688 C10.5273438,52.6445312 10.5859375,52.703125 10.6640625,52.78125 C10.7421875,52.859375 10.8203125,52.8984375 10.8984375,52.8984375 C10.8984375,52.9765625 10.9179688,53.015625 10.9570312,53.015625 C10.9960938,53.015625 11.015625,53.0351562 11.015625,53.0742188 C11.015625,53.1132812 11.0351562,53.1328125 11.0742188,53.1328125 L11.1328125,53.1328125 L11.1328125,53.1328125 C11.2109375,53.2109375 11.2890625,53.2695312 11.3671875,53.3085938 C11.4453125,53.3476562 11.5234375,53.40625 11.6015625,53.484375 C11.6536458,53.5364583 11.6970486,53.5798611 11.7317708,53.6145833 L11.8815104,53.7643229 C11.9032118,53.7860243 11.9270833,53.8098958 11.953125,53.8359375 C11.953125,53.8359375 11.9726562,53.8554688 12.0117188,53.8945312 C12.0507812,53.9335938 12.0898438,53.953125 12.1289062,53.953125 C12.1679688,53.953125 12.2070312,53.9726562 12.2460938,54.0117188 C12.2851562,54.0507812 12.3046875,54.0703125 12.3046875,54.0703125 C12.3828125,54.0703125 12.4414062,54.0898438 12.4804688,54.1289062 C12.5195312,54.1679688 12.5585938,54.2070312 12.5976562,54.2460938 C12.6367188,54.2851562 12.6757812,54.3242188 12.7148438,54.3632812 C12.7539062,54.4023438 12.8125,54.421875 12.890625,54.421875 C14.0625,55.28125 15.3320312,56.0429688 16.6992188,56.7070312 C18.0664062,57.3710938 19.453125,57.9375 20.859375,58.40625 C22.265625,58.875 23.7304688,59.2265625 25.2539062,59.4609375 C26.7773438,59.6953125 28.3203125,59.8125 29.8828125,59.8125 Z M29.8828125,55.59375 C33.4765625,55.59375 36.8164062,54.9296875 39.9023438,53.6015625 C42.9882812,52.2734375 45.703125,50.4375 48.046875,48.09375 C50.390625,45.75 52.2265625,43.015625 53.5546875,39.890625 C54.8828125,36.765625 55.546875,33.4453125 55.546875,29.9296875 C55.546875,26.4140625 54.8828125,23.09375 53.5546875,19.96875 C52.2265625,16.84375 50.390625,14.109375 48.046875,11.765625 C45.703125,9.421875 42.9882812,7.5859375 39.9023438,6.2578125 C36.8164062,4.9296875 33.4765625,4.265625 29.8828125,4.265625 C26.3671875,4.265625 23.046875,4.9296875 19.921875,6.2578125 C16.796875,7.5859375 14.0625,9.421875 11.71875,11.765625 C9.375,14.109375 7.5390625,16.84375 6.2109375,19.96875 C4.8828125,23.09375 4.21875,26.4140625 4.21875,29.9296875 C4.21875,31.4140625 4.3359375,32.8789062 4.5703125,34.3242188 C4.8046875,35.7695312 5.15625,37.15625 5.625,38.484375 C6.09375,39.8125 6.66015625,41.0820312 7.32421875,42.2929688 C7.98828125,43.5039062 8.75,44.65625 9.609375,45.75 L13.0078125,46.8046875 C13.1640625,46.8046875 13.28125,46.84375 13.359375,46.921875 C13.4375,47 13.515625,47.078125 13.59375,47.15625 C13.671875,47.234375 13.7304688,47.3125 13.7695312,47.390625 C13.8085938,47.46875 13.828125,47.546875 13.828125,47.625 L13.828125,48.2695312 L13.828125,48.2695312 C13.828125,48.3867188 13.7890625,48.484375 13.7109375,48.5625 L13.0078125,49.265625 C14.1015625,50.28125 15.2929688,51.1796875 16.5820312,51.9609375 C17.8710938,52.7421875 19.2382812,53.40625 20.6835938,53.953125 C22.1289062,54.5 23.6132812,54.9101562 25.1367188,55.1835938 C26.6601562,55.4570312 28.2421875,55.59375 29.8828125,55.59375 Z M38.90625,38.953125 C38.90625,38.953125 38.5351562,38.9335938 37.7929688,38.8945312 C37.0507812,38.8554688 36.1914062,38.8359375 35.2148438,38.8359375 C34.2382812,38.8359375 33.2421875,38.8164062 32.2265625,38.7773438 C31.2109375,38.7382812 30.4296875,38.6796875 29.8828125,38.6015625 C29.7265625,38.6015625 29.53125,38.5820312 29.296875,38.5429688 C29.0625,38.5039062 28.828125,38.4648438 28.59375,38.4257812 C28.359375,38.3867188 28.0859375,38.2890625 27.7734375,38.1328125 C27.4609375,37.9765625 27.1875,37.78125 26.953125,37.546875 C26.796875,37.3125 26.640625,37.0390625 26.484375,36.7265625 C26.328125,36.4140625 26.2109375,36.1210938 26.1328125,35.8476562 C26.0546875,35.5742188 25.9960938,35.3398438 25.9570312,35.1445312 C25.9179688,34.9492188 25.8984375,34.8515625 25.8984375,34.8515625 C25.8984375,34.8515625 25.8789062,34.734375 25.8398438,34.5 C25.8007812,34.265625 25.78125,33.953125 25.78125,33.5625 C25.78125,33.171875 25.7617188,32.703125 25.7226562,32.15625 C25.6835938,31.609375 25.6640625,31.1015625 25.6640625,30.6328125 L25.6640625,28.5234375 C25.6640625,28.0546875 25.6835938,27.546875 25.7226562,27 C25.7617188,26.453125 25.78125,25.984375 25.78125,25.59375 C25.78125,25.203125 25.8007812,24.890625 25.8398438,24.65625 C25.8789062,24.421875 25.8984375,24.3046875 25.8984375,24.3046875 C25.8984375,24.3046875 25.9179688,24.2070312 25.9570312,24.0117188 C25.9960938,23.8164062 26.0546875,23.5820312 26.1328125,23.3085938 C26.2109375,23.0351562 26.328125,22.7421875 26.484375,22.4296875 C26.640625,22.1171875 26.796875,21.84375 26.953125,21.609375 C27.1875,21.375 27.4414062,21.1796875 27.7148438,21.0234375 C27.9882812,20.8671875 28.2421875,20.7695312 28.4765625,20.7304688 C28.7109375,20.6914062 28.9257812,20.6523438 29.1210938,20.6132812 C29.3164062,20.5742188 29.4921875,20.5546875 29.6484375,20.5546875 C30.5859375,20.4765625 31.6015625,20.4179688 32.6953125,20.3789062 C33.7890625,20.3398438 34.7851562,20.3203125 35.6835938,20.3203125 L42.1875,20.3203125 L42.1875,20.3203125 C43.125,20.3203125 44.140625,20.3398438 45.234375,20.3789062 C46.328125,20.4179688 47.34375,20.4765625 48.28125,20.5546875 C48.4375,20.5546875 48.6132812,20.5742188 48.8085938,20.6132812 C49.0039062,20.6523438 49.21875,20.6914062 49.453125,20.7304688 C49.6875,20.7695312 49.921875,20.8671875 50.15625,21.0234375 C50.390625,21.1796875 50.6640625,21.375 50.9765625,21.609375 C51.1328125,21.84375 51.2890625,22.1171875 51.4453125,22.4296875 C51.6015625,22.7421875 51.71875,23.0351562 51.796875,23.3085938 C51.875,23.5820312 51.9335938,23.8164062 51.9726562,24.0117188 C52.0117188,24.2070312 52.03125,24.3046875 52.03125,24.3046875 L52.03125,24.65625 L52.03125,24.65625 C52.03125,24.890625 52.0507812,25.203125 52.0898438,25.59375 C52.1289062,25.984375 52.1679688,26.453125 52.2070312,27 C52.2460938,27.546875 52.265625,28.0546875 52.265625,28.5234375 L52.265625,30.6328125 C52.265625,31.1015625 52.2460938,31.609375 52.2070312,32.15625 C52.1679688,32.703125 52.1289062,33.171875 52.0898438,33.5625 C52.0507812,33.953125 52.03125,34.265625 52.03125,34.5 L52.03125,34.8515625 L52.03125,34.8515625 C52.03125,34.8515625 52.0117188,34.9492188 51.9726562,35.1445312 C51.9335938,35.3398438 51.875,35.5742188 51.796875,35.8476562 C51.71875,36.1210938 51.6015625,36.4140625 51.4453125,36.7265625 C51.2890625,37.0390625 51.1328125,37.3125 50.9765625,37.546875 C50.6640625,37.78125 50.390625,37.9765625 50.15625,38.1328125 C49.921875,38.2890625 49.6875,38.3867188 49.453125,38.4257812 C49.21875,38.4648438 49.0039062,38.5039062 48.8085938,38.5429688 C48.6132812,38.5820312 48.4375,38.6015625 48.28125,38.6015625 C47.34375,38.6796875 46.328125,38.7382812 45.234375,38.7773438 C44.140625,38.8164062 43.125,38.8359375 42.1875,38.8359375 C41.25,38.8359375 40.46875,38.8554688 39.84375,38.8945312 C39.21875,38.9335938 38.90625,38.953125 38.90625,38.953125 Z M42.5390625,35.4375 C42.6953125,35.4375 42.8515625,35.4179688 43.0078125,35.3789062 C43.1640625,35.3398438 43.3007812,35.28125 43.4179688,35.203125 C43.5351562,35.125 43.6328125,35.0273438 43.7109375,34.9101562 C43.7890625,34.7929688 43.828125,34.65625 43.828125,34.5 C43.90625,34.34375 43.9453125,34.2070312 43.9453125,34.0898438 C43.9453125,33.9726562 43.9648438,33.8554688 44.0039062,33.7382812 C44.0429688,33.6210938 44.0625,33.4648438 44.0625,33.2695312 L44.0625,28.5234375 L44.0625,28.5234375 C44.0625,28.3671875 44.0429688,28.2109375 44.0039062,28.0546875 C43.9648438,27.8984375 43.9257812,27.7617188 43.8867188,27.6445312 C43.8476562,27.5273438 43.828125,27.4296875 43.828125,27.3515625 C43.75,27.1953125 43.671875,27.0390625 43.59375,26.8828125 C43.515625,26.7265625 43.4375,26.609375 43.359375,26.53125 C43.28125,26.453125 43.1640625,26.3945312 43.0078125,26.3554688 C42.8515625,26.3164062 42.6953125,26.296875 42.5390625,26.296875 C42.3828125,26.296875 42.2265625,26.3164062 42.0703125,26.3554688 C41.9140625,26.3945312 41.7773438,26.453125 41.6601562,26.53125 C41.5429688,26.609375 41.40625,26.7070312 41.25,26.8242188 C41.09375,26.9414062 40.9765625,27.1171875 40.8984375,27.3515625 L40.8984375,23.3671875 L39.2578125,23.3671875 L39.2578125,35.3203125 L40.8984375,35.3203125 L40.8984375,34.5 C40.9765625,34.65625 41.09375,34.7929688 41.25,34.9101562 C41.40625,35.0273438 41.5625,35.125 41.71875,35.203125 C41.875,35.28125 42.0117188,35.3398438 42.1289062,35.3789062 C42.2460938,35.4179688 42.3828125,35.4375 42.5390625,35.4375 Z M31.5234375,35.3203125 L31.5234375,25.125 L33.3984375,25.125 L33.3984375,23.3671875 L27.890625,23.3671875 L27.890625,25.125 L29.6484375,25.125 L29.6484375,35.3203125 L31.5234375,35.3203125 Z M11.6015625,35.3203125 L9.84375,35.3203125 L9.84375,30.3984375 C9.84375,30.3984375 9.74609375,30.0859375 9.55078125,29.4609375 C9.35546875,28.8359375 9.12109375,28.1132812 8.84765625,27.2929688 C8.57421875,26.4726562 8.3203125,25.671875 8.0859375,24.890625 C7.8515625,24.109375 7.6953125,23.6015625 7.6171875,23.3671875 L9.4921875,23.3671875 L10.6640625,28.0546875 L11.953125,23.3671875 L13.828125,23.3671875 L11.6015625,30.3984375 L11.6015625,35.3203125 Z M15.9375,35.5546875 C15.703125,35.5546875 15.5078125,35.5351562 15.3515625,35.4960938 C15.1953125,35.4570312 15.0390625,35.3789062 14.8828125,35.2617188 C14.7265625,35.1445312 14.5703125,35.046875 14.4140625,34.96875 C14.2578125,34.890625 14.1015625,34.7734375 13.9453125,34.6171875 C13.8671875,34.4609375 13.8085938,34.3242188 13.7695312,34.2070312 C13.7304688,34.0898438 13.6914062,33.9335938 13.6523438,33.7382812 L13.5351562,33.1523438 L13.5351562,33.1523438 C13.4960938,32.9570312 13.4765625,32.7421875 13.4765625,32.5078125 L13.4765625,29.34375 C13.4765625,29.03125 13.4960938,28.7773438 13.5351562,28.5820312 L13.6523438,27.9960938 L13.6523438,27.9960938 C13.6914062,27.8007812 13.75,27.6445312 13.828125,27.5273438 C13.90625,27.4101562 13.984375,27.2734375 14.0625,27.1171875 C14.140625,26.9609375 14.2382812,26.8242188 14.3554688,26.7070312 C14.4726562,26.5898438 14.609375,26.5117188 14.765625,26.4726562 C14.921875,26.4335938 15.0976562,26.3945312 15.2929688,26.3554688 C15.4882812,26.3164062 15.703125,26.296875 15.9375,26.296875 C16.09375,26.296875 16.25,26.3164062 16.40625,26.3554688 C16.5625,26.3945312 16.71875,26.4335938 16.875,26.4726562 C17.03125,26.5117188 17.1875,26.5898438 17.34375,26.7070312 C17.5,26.8242188 17.65625,26.9609375 17.8125,27.1171875 C17.890625,27.2734375 17.9492188,27.4101562 17.9882812,27.5273438 C18.0273438,27.6445312 18.0859375,27.8007812 18.1640625,27.9960938 C18.2421875,28.1914062 18.28125,28.3867188 18.28125,28.5820312 L18.28125,33.1523438 L18.28125,33.1523438 C18.28125,33.3476562 18.2617188,33.5429688 18.2226562,33.7382812 C18.1835938,33.9335938 18.125,34.0898438 18.046875,34.2070312 C17.96875,34.3242188 17.890625,34.4609375 17.8125,34.6171875 C17.65625,34.7734375 17.5195312,34.890625 17.4023438,34.96875 C17.2851562,35.046875 17.1289062,35.1445312 16.9335938,35.2617188 C16.7382812,35.3789062 16.5625,35.4570312 16.40625,35.4960938 C16.25,35.5351562 16.09375,35.5546875 15.9375,35.5546875 Z M20.7421875,35.4375 L20.4492188,35.4375 L20.4492188,35.4375 C20.3320312,35.4375 20.234375,35.3984375 20.15625,35.3203125 L19.921875,35.0859375 L19.921875,35.0859375 C19.84375,35.0078125 19.765625,34.890625 19.6875,34.734375 C19.6875,34.734375 19.6679688,34.6757812 19.6289062,34.5585938 C19.5898438,34.4414062 19.5703125,34.34375 19.5703125,34.265625 L19.5703125,26.296875 L21.2109375,26.296875 L21.2109375,33.6796875 C21.2109375,33.7578125 21.2304688,33.8164062 21.2695312,33.8554688 C21.3085938,33.8945312 21.3476562,33.9140625 21.3867188,33.9140625 C21.4257812,33.9140625 21.4648438,33.9335938 21.5039062,33.9726562 L21.5625,34.03125 L21.5625,34.03125 C21.640625,34.03125 21.71875,34.0117188 21.796875,33.9726562 C21.875,33.9335938 21.953125,33.875 22.03125,33.796875 L22.6171875,33.2109375 L22.6171875,33.2109375 L22.6171875,26.296875 L24.2578125,26.296875 L24.2578125,35.3203125 L22.6171875,35.3203125 L22.6171875,34.3828125 L22.1484375,34.8515625 L22.1484375,34.8515625 C21.9921875,35.0078125 21.8359375,35.125 21.6796875,35.203125 C21.5234375,35.28125 21.3671875,35.3398438 21.2109375,35.3789062 C21.0546875,35.4179688 20.8984375,35.4375 20.7421875,35.4375 Z M47.6953125,35.4375 C47.8515625,35.4375 48.0273438,35.4179688 48.2226562,35.3789062 C48.4179688,35.3398438 48.59375,35.28125 48.75,35.203125 C48.90625,35.125 49.0625,35.0273438 49.21875,34.9101562 C49.375,34.7929688 49.4921875,34.65625 49.5703125,34.5 C49.6484375,34.421875 49.7070312,34.34375 49.7460938,34.265625 L49.8632812,34.03125 L49.8632812,34.03125 C49.9023438,33.953125 49.921875,33.875 49.921875,33.796875 L49.921875,33.5625 L49.921875,33.5625 C49.921875,33.484375 49.9414062,33.4257812 49.9804688,33.3867188 C50.0195312,33.3476562 50.0390625,33.2695312 50.0390625,33.1523438 L50.0390625,32.2734375 L48.28125,32.2734375 L48.28125,33.328125 L48.28125,33.328125 C48.28125,33.484375 48.2617188,33.6015625 48.2226562,33.6796875 C48.1835938,33.7578125 48.125,33.8164062 48.046875,33.8554688 C47.96875,33.8945312 47.890625,33.9335938 47.8125,33.9726562 C47.734375,34.0117188 47.65625,34.03125 47.578125,34.03125 C47.421875,34.03125 47.3046875,33.9921875 47.2265625,33.9140625 C47.1484375,33.8359375 47.0703125,33.7578125 46.9921875,33.6796875 C46.9140625,33.6015625 46.875,33.484375 46.875,33.328125 L46.875,31.1015625 L50.0390625,31.1015625 L50.0390625,29.34375 C50.0390625,29.109375 50.0195312,28.8945312 49.9804688,28.6992188 C49.9414062,28.5039062 49.9023438,28.3085938 49.8632812,28.1132812 C49.8242188,27.9179688 49.7851562,27.7421875 49.7460938,27.5859375 C49.7070312,27.4296875 49.609375,27.3125 49.453125,27.234375 C49.375,27.078125 49.2773438,26.9414062 49.1601562,26.8242188 C49.0429688,26.7070312 48.8867188,26.609375 48.6914062,26.53125 C48.4960938,26.453125 48.3203125,26.3945312 48.1640625,26.3554688 C48.0078125,26.3164062 47.8125,26.296875 47.578125,26.296875 C47.421875,26.296875 47.2460938,26.3164062 47.0507812,26.3554688 C46.8554688,26.3945312 46.6796875,26.453125 46.5234375,26.53125 C46.3671875,26.609375 46.2109375,26.7070312 46.0546875,26.8242188 C45.8984375,26.9414062 45.78125,27.078125 45.703125,27.234375 C45.625,27.3125 45.546875,27.4296875 45.46875,27.5859375 C45.390625,27.7421875 45.3320312,27.9179688 45.2929688,28.1132812 C45.2539062,28.3085938 45.2148438,28.5039062 45.1757812,28.6992188 C45.1367188,28.8945312 45.1171875,29.109375 45.1171875,29.34375 L45.1171875,32.5078125 C45.1171875,32.7421875 45.1367188,32.9570312 45.1757812,33.1523438 C45.2148438,33.3476562 45.2539062,33.5234375 45.2929688,33.6796875 C45.3320312,33.8359375 45.390625,33.9921875 45.46875,34.1484375 C45.546875,34.3046875 45.625,34.421875 45.703125,34.5 C45.78125,34.65625 45.8984375,34.7929688 46.0546875,34.9101562 C46.2109375,35.0273438 46.3671875,35.125 46.5234375,35.203125 C46.6796875,35.28125 46.8554688,35.3398438 47.0507812,35.3789062 C47.2460938,35.4179688 47.4609375,35.4375 47.6953125,35.4375 Z M34.453125,35.4375 C34.609375,35.4375 34.7460938,35.4179688 34.8632812,35.3789062 C34.9804688,35.3398438 35.1171875,35.28125 35.2734375,35.203125 C35.4296875,35.125 35.5859375,35.0078125 35.7421875,34.8515625 C35.8984375,34.6953125 36.0546875,34.5390625 36.2109375,34.3828125 L36.2109375,35.3203125 L37.8515625,35.3203125 L37.8515625,26.4140625 L36.2109375,26.4140625 L36.2109375,33.2109375 C36.1328125,33.3671875 36.0546875,33.484375 35.9765625,33.5625 L35.7421875,33.796875 L35.7421875,33.796875 C35.6640625,33.875 35.5859375,33.9335938 35.5078125,33.9726562 C35.4296875,34.0117188 35.3515625,34.03125 35.2734375,34.03125 C35.1953125,34.03125 35.1367188,34.0117188 35.0976562,33.9726562 C35.0585938,33.9335938 35.0195312,33.9140625 34.9804688,33.9140625 C34.9414062,33.9140625 34.921875,33.8945312 34.921875,33.8554688 L34.921875,26.4140625 L33.1640625,26.4140625 L33.1640625,33.9140625 L33.1640625,33.9140625 C33.1640625,34.0703125 33.1835938,34.1875 33.2226562,34.265625 C33.2617188,34.34375 33.28125,34.4414062 33.28125,34.5585938 C33.28125,34.6757812 33.3203125,34.734375 33.3984375,34.734375 C33.3984375,34.890625 33.4375,35.0078125 33.515625,35.0859375 L33.75,35.3203125 L33.75,35.3203125 C33.828125,35.3984375 33.9257812,35.4375 34.0429688,35.4375 L34.453125,35.4375 L34.453125,35.4375 Z M15.9375,34.03125 C16.015625,34.03125 16.1132812,33.9921875 16.2304688,33.9140625 C16.3476562,33.8359375 16.4257812,33.7578125 16.4648438,33.6796875 C16.5039062,33.6015625 16.5429688,33.4648438 16.5820312,33.2695312 C16.6210938,33.0742188 16.640625,32.859375 16.640625,32.625 L16.640625,29.109375 C16.640625,28.875 16.6210938,28.6796875 16.5820312,28.5234375 C16.5429688,28.3671875 16.5039062,28.2304688 16.4648438,28.1132812 C16.4257812,27.9960938 16.3476562,27.9179688 16.2304688,27.8789062 C16.1132812,27.8398438 16.015625,27.8203125 15.9375,27.8203125 C15.78125,27.8203125 15.6445312,27.8398438 15.5273438,27.8789062 C15.4101562,27.9179688 15.3320312,27.9960938 15.2929688,28.1132812 C15.2539062,28.2304688 15.2148438,28.3671875 15.1757812,28.5234375 C15.1367188,28.6796875 15.15625,28.875 15.234375,29.109375 L15.234375,32.625 C15.15625,32.859375 15.1367188,33.0742188 15.1757812,33.2695312 C15.2148438,33.4648438 15.2539062,33.6015625 15.2929688,33.6796875 C15.3320312,33.7578125 15.4101562,33.8359375 15.5273438,33.9140625 C15.6445312,33.9921875 15.78125,34.03125 15.9375,34.03125 Z M41.71875,34.03125 C41.640625,34.03125 41.5625,34.0117188 41.484375,33.9726562 C41.40625,33.9335938 41.328125,33.8945312 41.25,33.8554688 C41.171875,33.8164062 41.09375,33.7773438 41.015625,33.7382812 C40.9375,33.6992188 40.8984375,33.640625 40.8984375,33.5625 L40.8984375,28.171875 C40.8984375,28.09375 40.9375,28.0351562 41.015625,27.9960938 C41.09375,27.9570312 41.171875,27.9179688 41.25,27.8789062 C41.328125,27.8398438 41.40625,27.8203125 41.484375,27.8203125 L41.71875,27.8203125 L41.71875,27.8203125 C41.796875,27.8203125 41.875,27.8398438 41.953125,27.8789062 C42.03125,27.9179688 42.109375,27.9765625 42.1875,28.0546875 C42.265625,28.1328125 42.3242188,28.25 42.3632812,28.40625 C42.4023438,28.5625 42.421875,28.71875 42.421875,28.875 L42.421875,32.7421875 C42.421875,32.9765625 42.4023438,33.171875 42.3632812,33.328125 C42.3242188,33.484375 42.265625,33.6210938 42.1875,33.7382812 C42.109375,33.8554688 42.03125,33.9335938 41.953125,33.9726562 C41.875,34.0117188 41.796875,34.03125 41.71875,34.03125 Z M48.28125,29.8125 L46.875,29.8125 L46.875,28.3476562 L46.875,28.3476562 C46.875,28.2304688 46.9140625,28.1132812 46.9921875,27.9960938 C47.0703125,27.8789062 47.1484375,27.8203125 47.2265625,27.8203125 L47.9296875,27.8203125 L47.9296875,27.8203125 C48.0078125,27.8203125 48.0859375,27.8789062 48.1640625,27.9960938 C48.2421875,28.1132812 48.28125,28.2304688 48.28125,28.3476562 L48.28125,29.8125 Z" id="" fill="#000000" fill-rule="nonzero"></path>
    </g>
</svg>